<svg xmlns="http://www.w3.org/2000/svg" xmlns:xlink="http://www.w3.org/1999/xlink" width="1587" zoomAndPan="magnify" viewBox="0 0 1190.25 1683.749945" height="2245" preserveAspectRatio="xMidYMid meet" version="1.0"><path fill="#e2e2d3" d="M 1151.992188 794.359375 C 1147.953125 805.859375 1140.773438 816.90625 1130.78125 826.527344 C 1098.566406 857.578125 875.554688 897.890625 791.730469 912.128906 C 772.015625 915.484375 759.988281 917.394531 759.988281 917.394531 L 696.789062 827.675781 C 696.789062 827.675781 1026.613281 689.785156 1096.136719 708.304688 C 1148.214844 722.1875 1164.066406 760.117188 1151.992188 794.359375 Z M 1151.992188 794.359375 " fill-opacity="1" fill-rule="nonzero"/><path fill="#afaea0" d="M 1151.992188 794.359375 C 1147.953125 805.859375 1140.773438 816.90625 1130.78125 826.527344 C 1098.566406 857.578125 875.554688 897.890625 791.730469 912.128906 C 790.335938 889.246094 788.234375 862.8125 788.234375 862.8125 C 788.234375 862.8125 1057.898438 829.46875 1118.003906 799.949219 C 1128.015625 795.0625 1139.773438 793.433594 1151.992188 794.359375 Z M 1151.992188 794.359375 " fill-opacity="1" fill-rule="nonzero"/><path fill="#1c1d23" d="M 700.824219 828.851562 C 722.265625 857.710938 743.046875 885.917969 763.40625 914.972656 L 759.320312 913.246094 L 759.332031 913.246094 C 798.042969 902.867188 837.277344 895.75 876.480469 888.503906 C 915.664062 881.128906 954.75 873.289062 993.539062 864.410156 C 1012.921875 859.949219 1032.234375 855.214844 1051.324219 849.941406 C 1070.367188 844.648438 1089.410156 838.925781 1107.054688 831.375 C 1109.320312 830.5 1111.34375 829.390625 1113.464844 828.378906 C 1114.503906 827.859375 1115.59375 827.367188 1116.585938 826.816406 L 1119.4375 825.101562 C 1120.34375 824.523438 1121.445312 823.992188 1122.1875 823.375 L 1124.449219 821.574219 C 1125.222656 821.082031 1126.03125 820.214844 1126.832031 819.394531 C 1127.621094 818.566406 1128.476562 817.792969 1129.210938 816.917969 C 1135.367188 810.167969 1140.4375 802.484375 1143.734375 794.167969 C 1147.117188 785.886719 1148.550781 776.976562 1147.90625 768.332031 C 1147.261719 759.65625 1144.175781 751.367188 1139.359375 744.105469 C 1134.425781 736.894531 1127.640625 730.84375 1119.871094 726.078125 C 1112.046875 721.386719 1103.335938 717.867188 1094.226562 715.359375 C 1090.363281 714.328125 1085.804688 713.894531 1081.171875 713.847656 C 1076.523438 713.796875 1071.765625 713.972656 1066.964844 714.433594 C 1057.375 715.265625 1047.679688 716.855469 1038.035156 718.667969 C 1018.722656 722.367188 999.476562 727.246094 980.335938 732.546875 C 961.207031 737.859375 942.183594 743.691406 923.21875 749.773438 C 885.308594 761.96875 847.617188 775.03125 810.175781 788.777344 C 791.453125 795.640625 772.765625 802.660156 754.136719 809.8125 L 726.207031 820.578125 L 712.273438 826.046875 L 705.324219 828.800781 L 701.855469 830.191406 L 700.121094 830.882812 L 699.253906 831.230469 L 698.820312 831.40625 C 698.878906 831.375 698.378906 831.597656 698.90625 831.355469 C 699.824219 830.921875 700.671875 829.777344 700.824219 828.851562 Z M 692.757812 826.527344 C 693.046875 825.542969 694.050781 824.339844 695.089844 823.867188 L 695.601562 823.636719 L 696.902344 823.085938 L 698.628906 822.34375 L 702.078125 820.867188 L 708.988281 817.949219 L 722.828125 812.152344 L 750.570312 800.742188 C 769.113281 793.25 787.722656 785.894531 806.378906 778.683594 C 843.714844 764.300781 881.257812 750.382812 919.269531 737.675781 C 938.292969 731.363281 957.402344 725.28125 976.703125 719.699219 C 996.019531 714.136719 1015.484375 708.96875 1035.355469 704.949219 C 1045.3125 702.972656 1055.332031 701.199219 1065.644531 700.195312 C 1070.792969 699.65625 1076.035156 699.386719 1081.363281 699.386719 C 1086.710938 699.417969 1092.1875 699.773438 1097.996094 701.238281 C 1108.191406 703.917969 1118.226562 707.792969 1127.582031 713.289062 C 1136.890625 718.851562 1145.46875 726.222656 1151.925781 735.480469 C 1158.304688 744.742188 1162.429688 755.78125 1163.289062 767.070312 C 1164.175781 778.335938 1162.304688 789.675781 1158.179688 799.902344 C 1154.140625 810.199219 1148.03125 819.453125 1140.777344 827.480469 C 1139.898438 828.523438 1138.90625 829.4375 1137.972656 830.414062 C 1137.035156 831.375 1136.140625 832.339844 1134.859375 833.3125 L 1131.273438 836.175781 C 1130.070312 837.121094 1128.894531 837.691406 1127.699219 838.460938 L 1124.121094 840.609375 C 1122.9375 841.265625 1121.742188 841.816406 1120.558594 842.414062 C 1118.175781 843.570312 1115.796875 844.84375 1113.40625 845.789062 C 1094.316406 854.019531 1075.003906 859.832031 1055.613281 865.316406 C 1036.203125 870.746094 1016.726562 875.585938 997.183594 880.164062 C 958.113281 889.253906 918.875 897.265625 879.574219 904.804688 C 840.265625 912.378906 800.820312 919.175781 760.640625 921.546875 L 758.058594 921.960938 L 756.546875 919.820312 C 734.804688 889.050781 713.449219 857.460938 692.757812 826.527344 Z M 692.757812 826.527344 " fill-opacity="1" fill-rule="nonzero"/><path fill="#e2e2d3" d="M 1148.011719 826.027344 C 1099.519531 876.800781 1041.765625 848.128906 1041.765625 848.128906 L 1036.234375 843.203125 C 1031.453125 838.925781 1026.953125 834.480469 1022.722656 829.832031 C 995.3125 799.699219 979.742188 762.160156 978.949219 723.390625 C 978.949219 723.390625 1034.488281 675.191406 1098.988281 680.867188 C 1108.355469 681.679688 1117.085938 684.253906 1124.96875 688.222656 C 1171.34375 711.496094 1189.433594 782.636719 1148.011719 826.027344 Z M 1148.011719 826.027344 " fill-opacity="1" fill-rule="nonzero"/><path fill="#afaea0" d="M 1148.011719 826.027344 C 1099.519531 876.800781 1041.765625 848.128906 1041.765625 848.128906 L 1036.234375 843.203125 C 1031.453125 838.925781 1026.953125 834.480469 1022.722656 829.832031 L 1024.6875 825.667969 C 1024.6875 825.667969 1066.78125 834.847656 1109.925781 810.285156 C 1145.421875 790.089844 1140.773438 726.773438 1124.96875 688.222656 C 1171.34375 711.496094 1189.433594 782.636719 1148.011719 826.027344 Z M 1148.011719 826.027344 " fill-opacity="1" fill-rule="nonzero"/><path fill="#1c1d23" d="M 981.6875 726.5625 C 984.585938 720.074219 982.488281 724.777344 983.140625 723.34375 L 983.140625 723.449219 L 983.152344 723.582031 L 983.160156 723.851562 L 983.179688 724.402344 L 983.238281 725.492188 L 983.34375 727.679688 C 983.429688 729.136719 983.449219 730.601562 983.59375 732.046875 C 983.921875 734.949219 984.125 737.859375 984.550781 740.753906 C 985.398438 746.527344 986.476562 752.273438 987.980469 757.921875 C 990.910156 769.226562 995.140625 780.199219 1000.5 790.589844 C 1005.855469 800.992188 1012.34375 810.816406 1019.742188 819.886719 C 1023.453125 824.425781 1027.394531 828.765625 1031.53125 832.929688 C 1035.683594 837.054688 1040.03125 840.976562 1044.550781 844.996094 L 1043.625 844.371094 C 1047.421875 845.59375 1051.769531 846.734375 1055.941406 847.503906 C 1060.160156 848.34375 1064.410156 848.882812 1068.632812 849.238281 C 1077.113281 849.894531 1085.554688 849.449219 1093.757812 848.023438 C 1102.003906 846.683594 1109.78125 843.648438 1117.308594 840.167969 L 1122.734375 837.0625 L 1125.453125 835.523438 L 1127.988281 833.652344 L 1133.046875 829.921875 C 1133.921875 829.34375 1134.703125 828.628906 1135.457031 827.886719 L 1137.777344 825.71875 C 1150.664062 814.738281 1159.132812 799.824219 1162.496094 783.515625 C 1165.949219 767.234375 1163.933594 749.832031 1157.648438 734.292969 C 1151.203125 718.878906 1140.582031 704.890625 1126.339844 696.359375 C 1119.285156 692.082031 1111.480469 688.996094 1103.316406 687.636719 C 1101.246094 687.414062 1099.277344 686.941406 1097.101562 686.894531 L 1090.664062 686.585938 L 1087.433594 686.421875 C 1086.363281 686.402344 1085.285156 686.507812 1084.207031 686.539062 L 1077.730469 686.835938 C 1043.210938 689.621094 1009.488281 705.34375 981.6875 726.5625 Z M 976.195312 720.230469 C 990.476562 708.015625 1006.117188 698.289062 1022.960938 690.355469 C 1027.203125 688.445312 1031.433594 686.507812 1035.820312 684.9375 C 1040.136719 683.164062 1044.617188 681.824219 1049.078125 680.433594 C 1051.285156 679.671875 1053.589844 679.171875 1055.863281 678.621094 L 1062.714844 677.011719 L 1069.703125 675.933594 C 1072.035156 675.625 1074.335938 675.105469 1076.71875 675.035156 L 1083.800781 674.574219 C 1084.988281 674.515625 1086.164062 674.382812 1087.339844 674.382812 L 1090.902344 674.476562 L 1098.015625 674.691406 C 1100.386719 674.710938 1102.871094 675.191406 1105.292969 675.433594 C 1115.023438 676.867188 1124.441406 680.359375 1132.929688 685.292969 C 1141.441406 690.21875 1148.976562 696.71875 1155.222656 704.199219 C 1161.515625 711.660156 1166.640625 720.054688 1170.34375 729.039062 C 1177.714844 746.960938 1180.21875 767.058594 1176.308594 786.300781 C 1174.390625 795.902344 1170.941406 805.242188 1166.035156 813.773438 C 1161.1875 822.285156 1154.75 830.085938 1147.539062 836.339844 L 1144.898438 838.816406 C 1144.042969 839.667969 1143.15625 840.464844 1142.152344 841.160156 L 1136.324219 845.527344 L 1133.394531 847.6875 L 1130.234375 849.527344 L 1123.882812 853.191406 C 1121.695312 854.28125 1119.410156 855.175781 1117.164062 856.140625 L 1113.78125 857.558594 C 1112.636719 857.980469 1111.441406 858.28125 1110.265625 858.648438 C 1107.921875 859.332031 1105.570312 860.074219 1103.210938 860.679688 L 1095.984375 861.925781 C 1086.308594 863.234375 1076.496094 863.054688 1067.023438 861.367188 C 1062.300781 860.5 1057.644531 859.351562 1053.136719 857.769531 C 1048.558594 856.246094 1044.316406 854.386719 1039.886719 851.859375 L 1039.277344 851.515625 L 1038.960938 851.234375 C 1034.507812 847.292969 1029.949219 843.164062 1025.582031 838.835938 C 1021.257812 834.480469 1017.121094 829.941406 1013.238281 825.179688 C 1005.472656 815.664062 998.65625 805.347656 993.03125 794.417969 C 987.390625 783.484375 982.941406 771.925781 979.835938 760.003906 C 978.265625 754.046875 977.121094 747.980469 976.234375 741.890625 C 975.78125 738.84375 975.558594 735.757812 975.21875 732.703125 C 975.074219 731.167969 975.046875 729.628906 974.960938 728.085938 L 974.84375 725.773438 L 974.785156 724.613281 L 974.769531 724.035156 L 974.757812 723.746094 L 974.75 723.601562 L 974.75 723.496094 C 975.394531 722.050781 973.3125 726.746094 976.195312 720.230469 Z M 976.195312 720.230469 " fill-opacity="1" fill-rule="nonzero"/><path fill="#e2e2d3" d="M 487.335938 766.78125 L 421.496094 807.257812 L 393.867188 824.242188 C 393.867188 824.242188 228.4375 719.777344 140.816406 647.765625 C 113.746094 625.527344 94.117188 606.363281 89.046875 594.332031 C 67.59375 543.355469 96.371094 488.921875 167.550781 499.351562 C 238.730469 509.820312 487.335938 766.78125 487.335938 766.78125 Z M 487.335938 766.78125 " fill-opacity="1" fill-rule="nonzero"/><path fill="#afaea0" d="M 421.496094 807.257812 L 393.867188 824.242188 C 393.867188 824.242188 228.4375 719.777344 140.816406 647.765625 L 189.792969 638.734375 C 189.78125 638.722656 344.949219 757.179688 421.496094 807.257812 Z M 421.496094 807.257812 " fill-opacity="1" fill-rule="nonzero"/><path fill="#1c1d23" d="M 491.5 767.300781 C 460.273438 787.542969 428.191406 808.144531 396.074219 827.800781 L 393.835938 829.167969 L 391.640625 827.769531 L 391.628906 827.769531 C 357.59375 806.699219 324.027344 785 290.652344 762.921875 C 257.289062 740.847656 224.261719 718.234375 191.84375 694.683594 C 175.644531 682.894531 159.589844 670.863281 143.851562 658.339844 C 128.132812 645.769531 112.628906 632.921875 98.335938 618.007812 C 96.503906 616.214844 94.839844 614.132812 93.101562 612.164062 C 92.246094 611.152344 91.367188 610.199219 90.539062 609.148438 L 88.121094 605.832031 C 87.339844 604.675781 86.484375 603.710938 85.761719 602.402344 L 83.628906 598.46875 C 82.847656 597.117188 82.414062 595.894531 81.933594 594.640625 C 81.472656 593.386719 80.914062 592.171875 80.527344 590.882812 C 77.019531 580.757812 75.054688 569.972656 75.371094 559.050781 C 75.574219 548.148438 78.261719 537.128906 83.4375 527.25 C 88.582031 517.328125 96.59375 508.914062 105.960938 502.917969 C 115.414062 496.980469 126.089844 493.546875 136.769531 492.054688 C 147.476562 490.644531 158.191406 490.972656 168.589844 492.457031 C 174.480469 493.363281 179.644531 495.167969 184.570312 497.210938 C 189.472656 499.28125 194.195312 501.558594 198.714844 504.0625 C 207.8125 508.988281 216.371094 514.523438 224.773438 520.210938 C 258.1875 543.191406 288.871094 569.125 318.890625 595.71875 C 348.859375 622.355469 378.117188 649.714844 406.566406 677.871094 C 420.800781 691.933594 435.054688 705.980469 448.960938 720.375 L 469.796875 741.976562 L 480.125 752.859375 L 485.253906 758.34375 L 487.808594 761.09375 L 489.078125 762.46875 L 489.714844 763.164062 L 490.035156 763.511719 L 490.410156 763.9375 C 491.179688 764.773438 491.613281 766.277344 491.5 767.300781 Z M 483.171875 766.25 C 482.941406 767.15625 483.269531 768.542969 483.933594 769.285156 C 484.320312 769.71875 483.945312 769.316406 483.992188 769.371094 L 483.65625 769.046875 L 482.988281 768.390625 L 481.648438 767.089844 L 478.96875 764.476562 L 473.601562 759.269531 L 462.867188 748.839844 L 441.300781 728.085938 C 426.824219 714.347656 412.503906 700.457031 397.941406 686.835938 C 368.78125 659.613281 339.570312 632.46875 309.609375 606.246094 C 294.632812 593.136719 279.425781 580.304688 264.035156 567.765625 C 248.644531 555.242188 232.984375 543.058594 216.765625 531.914062 C 208.652344 526.378906 200.410156 521.03125 191.960938 516.421875 C 187.75 514.070312 183.460938 511.996094 179.171875 510.167969 C 174.902344 508.355469 170.535156 506.90625 166.539062 506.28125 C 157.179688 504.914062 147.746094 504.632812 138.628906 505.789062 C 129.542969 507.042969 120.820312 509.878906 113.292969 514.5625 C 105.851562 519.324219 99.609375 525.820312 95.503906 533.660156 C 91.398438 541.46875 89.125 550.355469 88.941406 559.425781 C 88.632812 568.496094 90.261719 577.695312 93.257812 586.445312 C 93.585938 587.554688 94.078125 588.617188 94.472656 589.703125 C 94.886719 590.792969 95.292969 591.921875 95.8125 592.722656 L 97.226562 595.390625 C 97.679688 596.289062 98.492188 597.222656 99.097656 598.128906 L 101.054688 600.898438 C 101.757812 601.8125 102.566406 602.699219 103.320312 603.605469 C 104.871094 605.398438 106.296875 607.25 108.023438 608.964844 C 121.242188 623.050781 136.429688 635.957031 151.785156 648.46875 C 167.183594 660.980469 183.007812 673.070312 198.984375 684.945312 C 263.140625 732.191406 329.316406 777.015625 396.113281 820.667969 L 396.121094 820.667969 L 391.6875 820.636719 C 421.851562 802.011719 452.082031 784.304688 483.171875 766.25 Z M 483.171875 766.25 " fill-opacity="1" fill-rule="nonzero"/><path fill="#e2e2d3" d="M 269.269531 559.53125 C 253.667969 593.945312 225.582031 621.746094 189.8125 638.734375 C 183.238281 641.867188 176.414062 644.605469 169.34375 646.984375 L 162.328125 649.308594 C 162.328125 649.308594 97.941406 652.867188 73.445312 587.035156 C 60.886719 553.296875 71.929688 518.863281 93.972656 496.023438 C 114.921875 474.34375 145.796875 463.152344 175.78125 473.023438 C 237.246094 493.304688 269.269531 559.53125 269.269531 559.53125 Z M 269.269531 559.53125 " fill-opacity="1" fill-rule="nonzero"/><path fill="#afaea0" d="M 199.574219 631.648438 L 189.8125 638.722656 C 183.238281 641.855469 176.414062 644.59375 169.34375 646.976562 L 162.328125 649.296875 C 162.328125 649.296875 97.941406 652.855469 73.445312 587.023438 C 60.886719 553.285156 71.929688 518.851562 93.972656 496.015625 C 88.855469 524.953125 78.472656 630.5 199.574219 631.648438 Z M 199.574219 631.648438 " fill-opacity="1" fill-rule="nonzero"/><path fill="#1c1d23" d="M 153.394531 473.640625 C 133.164062 473.640625 112.753906 482.558594 96.871094 499.070312 C 73.867188 522.976562 66.390625 556.121094 77.355469 585.578125 C 99.550781 645.191406 155.050781 645.328125 161.554688 645.144531 L 168.003906 642.984375 C 211.359375 628.464844 246.457031 598.148438 264.59375 559.609375 C 259.074219 549.179688 228.011719 494.664062 174.449219 476.996094 C 167.597656 474.75 160.503906 473.640625 153.394531 473.640625 Z M 161.074219 653.53125 C 151.023438 653.53125 92.6875 650.773438 69.503906 588.5 C 57.398438 555.996094 65.570312 519.496094 90.839844 493.25 C 114.566406 468.589844 147.621094 459.316406 177.089844 469.03125 C 239.546875 489.632812 271.707031 554.925781 273.046875 557.691406 L 273.902344 559.464844 L 273.09375 561.257812 C 254.253906 602.777344 216.921875 635.464844 170.671875 650.945312 L 163.125 653.472656 L 162.558594 653.5 C 162.5 653.511719 161.980469 653.53125 161.074219 653.53125 Z M 161.074219 653.53125 " fill-opacity="1" fill-rule="nonzero"/><path fill="#e2e2d3" d="M 777.21875 1565.007812 L 679.160156 1583.035156 C 669.621094 1584.800781 660.167969 1584.125 651.53125 1581.464844 C 633.945312 1576.066406 619.625 1562.433594 614.332031 1544.136719 C 614.140625 1543.492188 613.9375 1542.855469 613.800781 1542.210938 L 557.417969 1316.636719 C 551.285156 1292.074219 461.902344 1210.105469 460.902344 1172.058594 L 466.328125 1171.054688 L 518.628906 1161.453125 L 493.820312 1062.117188 C 485.9375 1030.496094 507.71875 998.839844 540.859375 993.722656 L 582.675781 987.292969 C 609.4375 983.175781 635.285156 997.894531 644.535156 1022.515625 L 813.242188 1471.058594 L 820.757812 1491.03125 C 832.902344 1523.238281 812.09375 1558.597656 777.21875 1565.007812 Z M 777.21875 1565.007812 " fill-opacity="1" fill-rule="nonzero"/><path fill="#afaea0" d="M 672.953125 1482.625 L 651.53125 1581.464844 C 633.945312 1576.066406 619.625 1562.433594 614.332031 1544.136719 C 614.140625 1543.492188 613.9375 1542.855469 613.800781 1542.210938 L 557.417969 1316.636719 C 551.285156 1292.074219 461.902344 1210.105469 460.902344 1172.058594 L 466.328125 1171.054688 L 577.132812 1227.765625 Z M 672.953125 1482.625 " fill-opacity="1" fill-rule="nonzero"/><path fill="#1c1d23" d="M 828.882812 1487.949219 C 831.792969 1495.753906 833.210938 1504.152344 832.910156 1512.539062 C 832.621094 1520.894531 830.617188 1529.1875 827.148438 1536.773438 C 820.226562 1552.003906 807.121094 1564.082031 791.703125 1570.292969 C 789.738281 1571.003906 787.800781 1571.765625 785.824219 1572.390625 L 779.78125 1573.878906 C 776.023438 1574.675781 772.660156 1575.253906 769.066406 1575.949219 L 747.875 1579.980469 L 705.488281 1588.019531 L 684.296875 1592.046875 C 682.523438 1592.375 680.867188 1592.722656 678.660156 1593.023438 C 676.589844 1593.300781 674.515625 1593.667969 672.40625 1593.695312 C 670.304688 1593.804688 668.214844 1593.957031 666.101562 1593.804688 C 664.003906 1593.714844 661.890625 1593.65625 659.808594 1593.320312 C 643.078125 1591.316406 627.148438 1582.71875 616.40625 1569.441406 C 615.027344 1567.824219 613.871094 1566.011719 612.617188 1564.285156 C 611.453125 1562.503906 610.429688 1560.621094 609.359375 1558.78125 C 608.40625 1556.863281 607.546875 1554.914062 606.660156 1552.957031 L 604.617188 1547.070312 C 603.894531 1544.5625 603.539062 1543.011719 603.085938 1541.246094 L 601.765625 1536.019531 L 599.125 1525.5625 L 588.574219 1483.726562 L 567.949219 1399.953125 L 547.808594 1317.4375 C 546.941406 1315.191406 545.246094 1312.269531 543.558594 1309.53125 C 541.765625 1306.738281 539.847656 1303.902344 537.796875 1301.097656 C 533.726562 1295.457031 529.363281 1289.859375 524.9375 1284.265625 C 516.113281 1273.046875 507.054688 1261.816406 498.195312 1250.34375 C 489.4375 1238.796875 480.707031 1227.113281 473.023438 1214.523438 C 469.167969 1208.238281 465.507812 1201.789062 462.425781 1194.886719 C 459.378906 1188.003906 456.816406 1180.550781 456.71875 1172.175781 L 456.71875 1172.164062 L 456.410156 1168.609375 L 460.148438 1167.921875 L 517.867188 1157.320312 L 517.875 1157.308594 L 514.558594 1162.46875 L 489.195312 1063.695312 C 486.835938 1054.828125 486.632812 1045.226562 488.636719 1036.175781 C 490.621094 1027.105469 494.746094 1018.542969 500.5 1011.285156 C 506.234375 1004.007812 513.644531 998.039062 522.011719 994.011719 C 526.203125 992.015625 530.578125 990.394531 535.085938 989.335938 C 539.761719 988.234375 543.835938 987.6875 548.039062 986.992188 L 573.203125 982.972656 C 577.460938 982.328125 581.375 981.566406 586.191406 981.09375 C 588.503906 980.863281 590.847656 980.863281 593.179688 980.832031 C 595.5 980.988281 597.851562 980.976562 600.15625 981.382812 C 618.746094 983.589844 636.101562 994.792969 645.757812 1011.082031 C 646.867188 1013.164062 648.109375 1015.1875 648.96875 1017.398438 L 650.347656 1020.625 L 651.484375 1023.605469 L 656.03125 1035.5 L 665.128906 1059.320312 L 683.324219 1106.941406 Z M 812.652344 1494.058594 L 671.035156 1111.597656 L 653.332031 1063.785156 L 644.488281 1039.886719 L 640.0625 1027.933594 L 638.957031 1024.945312 L 637.847656 1022.304688 C 637.191406 1020.519531 636.1875 1018.917969 635.339844 1017.242188 C 627.777344 1004.171875 613.851562 994.839844 598.644531 992.890625 C 596.765625 992.527344 594.835938 992.546875 592.9375 992.371094 C 591.03125 992.390625 589.101562 992.351562 587.195312 992.535156 C 583.550781 992.835938 579.097656 993.597656 574.957031 994.195312 L 549.746094 997.933594 C 545.554688 998.550781 541.195312 999.128906 537.59375 999.949219 C 533.824219 1000.777344 530.183594 1002.078125 526.675781 1003.6875 C 519.675781 1006.929688 513.453125 1011.824219 508.605469 1017.820312 C 498.792969 1029.765625 494.71875 1046.210938 498.640625 1061.355469 L 522.714844 1160.433594 L 523.773438 1164.808594 L 519.398438 1165.582031 L 519.386719 1165.582031 L 461.671875 1176.195312 L 465.113281 1171.953125 L 465.113281 1171.960938 C 465.824219 1178.015625 468.621094 1184.261719 471.839844 1190.257812 C 475.136719 1196.253906 479.066406 1202.058594 483.210938 1207.714844 C 491.59375 1219.003906 500.644531 1229.984375 510.011719 1240.753906 L 538.304688 1273.316406 C 543 1278.839844 547.671875 1284.421875 552.242188 1290.300781 C 554.523438 1293.222656 556.769531 1296.269531 558.957031 1299.460938 C 561.105469 1302.785156 563.3125 1305.957031 565.164062 1310.382812 C 565.636719 1311.507812 566.050781 1312.859375 566.457031 1314.113281 L 567.167969 1316.792969 L 568.527344 1322.015625 L 571.253906 1332.457031 L 576.699219 1353.347656 L 587.347656 1395.191406 L 608.589844 1478.875 L 618.96875 1520.789062 L 624.035156 1541.128906 C 625.734375 1547.089844 628.414062 1552.121094 632.113281 1556.746094 C 639.464844 1565.894531 650.566406 1572.046875 662.363281 1573.636719 C 663.828125 1573.914062 665.320312 1573.945312 666.816406 1574.03125 C 668.300781 1574.1875 669.792969 1574.050781 671.289062 1574.011719 C 672.78125 1574.03125 674.265625 1573.761719 675.757812 1573.589844 C 677.128906 1573.453125 678.996094 1573.105469 680.761719 1572.789062 L 702 1569.007812 L 744.480469 1561.453125 L 765.722656 1557.671875 C 769.210938 1557.035156 772.929688 1556.429688 776.214844 1555.765625 L 780.660156 1554.722656 C 782.105469 1554.28125 783.511719 1553.71875 784.957031 1553.25 C 796.191406 1548.851562 805.847656 1540.207031 810.996094 1529.214844 C 816.191406 1518.265625 816.789062 1505.472656 812.652344 1494.058594 Z M 812.652344 1494.058594 " fill-opacity="1" fill-rule="nonzero"/><path fill="#e2e2d3" d="M 540.609375 1117.929688 L 510.128906 1198.78125 C 501.203125 1205.867188 485.042969 1216.074219 466.277344 1227.429688 C 422.199219 1254.035156 363.722656 1286.800781 350.882812 1299.074219 L 190.011719 1452.644531 L 182.738281 1459.585938 C 179.460938 1462.710938 175.914062 1465.351562 172.136719 1467.5 C 151.4375 1479.269531 124.394531 1476.445312 105.6875 1459.152344 L 32.417969 1391.511719 C 6.378906 1367.449219 7.671875 1326.46875 35.15625 1305.675781 L 45.417969 1297.925781 L 434.371094 1003.871094 C 455.351562 988.015625 485.070312 989.382812 505.492188 1007.140625 L 537.398438 1034.949219 C 562.679688 1056.996094 564.164062 1095.414062 540.609375 1117.929688 Z M 540.609375 1117.929688 " fill-opacity="1" fill-rule="nonzero"/><path fill="#ffffff" d="M 274.78125 1160.511719 L 88.679688 1292.769531 L 69.019531 1289.675781 L 58.535156 1287.988281 L 47.992188 1286.339844 L 257.917969 1128.8125 L 261.136719 1134.847656 L 264.34375 1140.894531 Z M 274.78125 1160.511719 " fill-opacity="1" fill-rule="nonzero"/><path fill="#afaea0" d="M 473.207031 1211.195312 C 473.0625 1212.101562 470.488281 1218.03125 466.269531 1227.429688 C 422.1875 1254.035156 363.710938 1286.800781 350.875 1299.074219 L 190.003906 1452.644531 L 182.726562 1459.585938 C 179.453125 1462.710938 175.90625 1465.351562 172.128906 1467.5 L 179.179688 1350.808594 L 376.539062 1199.089844 C 376.558594 1199.078125 474.21875 1205.160156 473.207031 1211.195312 Z M 473.207031 1211.195312 " fill-opacity="1" fill-rule="nonzero"/><path fill="#1c1d23" d="M 536.976562 1115.683594 L 536.695312 1116.4375 L 506.746094 1196.3125 C 505.375 1197.121094 504.054688 1197.902344 502.773438 1198.75 L 500.847656 1200.035156 L 498.523438 1201.449219 C 495.449219 1203.378906 492.394531 1205.34375 489.234375 1207.214844 C 483.027344 1211.023438 476.648438 1214.65625 470.328125 1218.320312 C 470.296875 1218.320312 470.296875 1218.339844 470.269531 1218.339844 L 431.789062 1240.046875 C 418.921875 1247.238281 406.113281 1254.59375 393.277344 1262.007812 C 386.871094 1265.671875 380.5 1269.488281 374.148438 1273.363281 C 367.796875 1277.289062 361.476562 1281.203125 355.136719 1285.585938 L 350.382812 1288.980469 L 345.488281 1293.03125 L 337.402344 1300.605469 L 321.347656 1315.855469 L 289.265625 1346.355469 L 225.304688 1407.570312 L 193.339844 1438.175781 L 177.339844 1453.476562 C 175.886719 1454.871094 174.34375 1456.195312 172.753906 1457.371094 C 169.3125 1459.945312 165.566406 1462.015625 161.507812 1463.492188 C 149.730469 1467.945312 136.144531 1467.355469 124.558594 1462.09375 C 123.074219 1461.503906 121.707031 1460.722656 120.335938 1459.945312 C 118.910156 1459.21875 117.621094 1458.277344 116.308594 1457.371094 C 114.941406 1456.53125 113.765625 1455.472656 112.53125 1454.4375 C 111.355469 1453.515625 109.988281 1452.230469 108.621094 1450.96875 L 92.34375 1435.980469 L 59.789062 1405.988281 L 43.511719 1390.988281 C 37.75 1385.753906 33.304688 1381.648438 29.777344 1376.25 C 22.558594 1365.703125 20.015625 1352.1875 22.484375 1339.800781 C 23.71875 1333.585938 26.175781 1327.65625 29.757812 1322.460938 C 30.742188 1321.226562 31.523438 1319.855469 32.613281 1318.71875 C 33.699219 1317.601562 34.742188 1316.394531 35.859375 1315.277344 L 39.464844 1312.203125 C 40.773438 1311.144531 42.375 1309.996094 43.800781 1308.878906 L 69.03125 1289.683594 L 264.355469 1140.914062 L 325.492188 1094.332031 L 395.832031 1040.589844 L 430.988281 1013.675781 L 435.382812 1010.3125 L 437.558594 1008.644531 L 439.632812 1007.1875 C 440.941406 1006.203125 442.371094 1005.367188 443.824219 1004.554688 C 445.222656 1003.6875 446.765625 1003.101562 448.246094 1002.378906 C 454.320312 999.6875 460.96875 998.433594 467.597656 998.378906 C 474.257812 998.378906 480.964844 999.554688 487.171875 1002.097656 C 490.246094 1003.378906 493.273438 1004.863281 496.066406 1006.714844 C 497.492188 1007.601562 498.890625 1008.558594 500.183594 1009.644531 L 502.167969 1011.21875 L 504.269531 1013.011719 L 521.046875 1027.453125 L 529.441406 1034.660156 L 533.632812 1038.265625 C 534.972656 1039.453125 536.089844 1040.628906 537.351562 1041.796875 C 546.863281 1051.398438 552.597656 1064.679688 552.734375 1078.273438 L 552.734375 1079.179688 C 552.734375 1092.441406 547.308594 1105.609375 537.71875 1114.894531 Z M 544.414062 1034.894531 C 542.988281 1033.515625 541.535156 1032 540.136719 1030.757812 L 535.992188 1027.09375 L 527.6875 1019.789062 L 511.070312 1005.136719 L 509 1003.3125 L 506.675781 1001.414062 C 505.164062 1000.101562 503.515625 998.957031 501.808594 997.855469 C 498.484375 995.589844 494.871094 993.769531 491.179688 992.179688 C 483.769531 989.046875 475.683594 987.472656 467.609375 987.398438 C 459.523438 987.339844 451.359375 988.796875 443.863281 991.984375 C 442.011719 992.824219 440.113281 993.558594 438.351562 994.617188 C 436.558594 995.570312 434.792969 996.574219 433.148438 997.78125 L 430.660156 999.484375 L 428.425781 1001.164062 L 424 1004.460938 L 388.507812 1030.929688 L 317.636719 1083.960938 L 257.898438 1128.8125 L 47.992188 1286.339844 L 34.453125 1296.488281 C 32.9375 1297.636719 31.542969 1298.640625 29.980469 1299.914062 L 25.171875 1304 C 23.6875 1305.472656 22.261719 1307.046875 20.835938 1308.589844 C 19.378906 1310.160156 18.261719 1311.933594 16.980469 1313.621094 C 12.144531 1320.5625 8.816406 1328.503906 7.1875 1336.765625 C 3.863281 1353.238281 7.246094 1371.007812 16.644531 1384.9375 C 17.675781 1386.75 19.128906 1388.300781 20.363281 1389.96875 C 21.597656 1391.683594 23.050781 1393.195312 24.507812 1394.671875 L 26.683594 1396.917969 C 27.4375 1397.660156 28.054688 1398.199219 28.757812 1398.847656 L 32.8125 1402.625 L 49.050781 1417.632812 L 81.519531 1447.699219 L 97.769531 1462.75 C 99.105469 1463.992188 100.398438 1465.214844 102.105469 1466.613281 C 103.695312 1467.953125 105.292969 1469.351562 107.058594 1470.46875 C 108.765625 1471.675781 110.5 1472.910156 112.339844 1473.890625 C 114.160156 1474.914062 116 1475.957031 117.929688 1476.746094 C 133.222656 1483.734375 151.261719 1484.601562 167.183594 1478.671875 C 175.125 1475.761719 182.507812 1471.058594 188.546875 1465.246094 L 204.574219 1449.996094 L 236.628906 1419.476562 L 300.761719 1358.4375 L 332.699219 1327.800781 L 348.667969 1312.472656 L 356.609375 1304.800781 L 360.183594 1301.753906 L 364.40625 1298.640625 C 375.929688 1290.359375 388.625 1282.695312 401.015625 1274.886719 L 438.660156 1251.695312 C 451.214844 1243.941406 463.773438 1236.144531 476.167969 1228 C 482.371094 1223.949219 488.558594 1219.851562 494.679688 1215.601562 C 497.753906 1213.539062 500.808594 1211.292969 503.796875 1209.054688 L 506.058594 1207.40625 L 508.574219 1205.394531 C 510.253906 1204.015625 511.902344 1202.617188 513.5 1201.21875 L 544.183594 1120.265625 C 555.402344 1109.4375 561.917969 1093.859375 561.859375 1078.214844 C 561.984375 1062.261719 555.546875 1046.363281 544.414062 1034.894531 Z M 544.414062 1034.894531 " fill-opacity="1" fill-rule="nonzero"/><path fill="#afaea0" d="M 227.394531 1099.480469 L 221.304688 1126.789062 C 218.675781 1138.609375 225.304688 1150.511719 236.742188 1154.457031 C 280.304688 1169.496094 386.542969 1204.988281 471.945312 1224.046875 C 557.597656 1243.152344 673.359375 1259.347656 720.765625 1265.625 C 732.984375 1267.242188 744.402344 1259.25 747.082031 1247.21875 L 758.386719 1196.515625 C 761.328125 1183.308594 752.683594 1170.304688 739.363281 1167.914062 L 254.792969 1081.25 C 242.257812 1078.984375 230.171875 1087.035156 227.394531 1099.480469 Z M 227.394531 1099.480469 " fill-opacity="1" fill-rule="nonzero"/><path fill="#e2e2d3" d="M 228.667969 1086.628906 L 222.578125 1113.949219 C 219.945312 1125.757812 226.578125 1137.652344 238.015625 1141.605469 C 281.574219 1156.644531 387.8125 1192.148438 473.21875 1211.195312 C 558.871094 1230.3125 674.632812 1246.496094 722.035156 1252.78125 C 734.257812 1254.394531 745.675781 1246.410156 748.355469 1234.359375 L 759.660156 1183.664062 C 762.597656 1170.449219 753.953125 1157.445312 740.636719 1155.0625 L 256.066406 1068.402344 C 243.527344 1066.15625 231.441406 1074.195312 228.667969 1086.628906 Z M 228.667969 1086.628906 " fill-opacity="1" fill-rule="nonzero"/><path fill="#1c1d23" d="M 250.5625 1085.050781 C 241.542969 1085.050781 233.523438 1091.277344 231.492188 1100.386719 L 225.402344 1127.695312 C 223.234375 1137.441406 228.695312 1147.226562 238.113281 1150.476562 C 280.195312 1165.003906 387.304688 1200.84375 472.859375 1219.941406 C 558.667969 1239.085938 675.199219 1255.347656 721.3125 1261.449219 C 731.433594 1262.78125 740.761719 1256.273438 742.988281 1246.296875 L 754.292969 1195.589844 C 755.46875 1190.335938 754.472656 1184.957031 751.476562 1180.464844 C 748.488281 1175.972656 743.921875 1172.984375 738.613281 1172.039062 L 254.042969 1085.378906 C 252.886719 1085.15625 251.71875 1085.050781 250.5625 1085.050781 Z M 723.984375 1270.019531 C 722.738281 1270.019531 721.476562 1269.941406 720.214844 1269.769531 C 673.984375 1263.65625 557.164062 1247.347656 471.03125 1228.125 C 385.058594 1208.941406 277.585938 1172.984375 235.375 1158.410156 C 221.921875 1153.761719 214.105469 1139.773438 217.210938 1125.855469 L 223.300781 1098.546875 C 226.578125 1083.863281 240.722656 1074.4375 255.535156 1077.078125 L 740.105469 1163.738281 C 747.679688 1165.089844 754.203125 1169.378906 758.472656 1175.789062 C 762.742188 1182.210938 764.167969 1189.875 762.492188 1197.390625 L 751.1875 1248.097656 C 748.277344 1261.140625 736.933594 1270.019531 723.984375 1270.019531 Z M 723.984375 1270.019531 " fill-opacity="1" fill-rule="nonzero"/><path fill="#e2e2d3" d="M 801.097656 1167.730469 C 790.390625 1212.652344 737.609375 1227.296875 678.457031 1228.691406 C 590.886719 1230.753906 489.3125 1203.957031 489.3125 1203.957031 C 489.3125 1203.957031 385.945312 1185.042969 307.605469 1145.945312 C 276.476562 1130.414062 249.261719 1111.703125 234.054688 1089.707031 C 223.394531 1074.292969 218.585938 1057.277344 222.472656 1038.625 C 240.261719 952.761719 375.652344 747.5 438.273438 655.855469 C 457.488281 627.707031 469.84375 610.277344 469.84375 610.277344 L 612.453125 651.679688 L 759.175781 674.816406 C 759.175781 674.816406 827.726562 1056.273438 801.097656 1167.730469 Z M 801.097656 1167.730469 " fill-opacity="1" fill-rule="nonzero"/><path fill="#afaea0" d="M 508.808594 733.5625 C 508.808594 733.5625 486.042969 752.453125 466.238281 784.816406 C 446.464844 817.1875 363.519531 891.375 331.714844 905.535156 C 299.945312 919.6875 229.96875 1052.574219 235.875 1080.855469 C 236.714844 1084.855469 235.964844 1087.710938 234.054688 1089.695312 C 223.394531 1074.28125 218.585938 1057.265625 222.472656 1038.613281 C 240.261719 952.75 375.652344 747.492188 438.273438 655.84375 Z M 508.808594 733.5625 " fill-opacity="1" fill-rule="nonzero"/><path fill="#1c1d23" d="M 792 1165.5625 C 795.972656 1146.628906 797.242188 1126.210938 797.929688 1105.910156 C 798.515625 1085.539062 798.148438 1065.019531 797.351562 1044.484375 C 795.625 1003.398438 792.203125 962.277344 788.050781 921.210938 C 783.828125 880.144531 778.847656 839.125 773.304688 798.1875 C 767.773438 757.246094 761.722656 716.324219 755.042969 675.578125 L 758.53125 678.980469 L 611.816406 655.84375 L 611.558594 655.804688 L 611.304688 655.726562 L 468.699219 614.304688 L 473.285156 612.707031 L 473.273438 612.707031 C 433.609375 669.753906 395.207031 727.777344 358.246094 786.617188 C 339.820312 816.078125 321.78125 845.769531 304.464844 875.84375 C 287.269531 905.96875 270.472656 936.363281 255.757812 967.605469 C 248.394531 983.203125 241.40625 999.003906 235.835938 1015.113281 C 234.355469 1019.113281 233.265625 1023.191406 231.953125 1027.230469 C 230.691406 1031.269531 229.910156 1035.335938 228.859375 1039.386719 C 227.386719 1047.175781 227.300781 1054.972656 228.898438 1062.597656 C 232.347656 1077.847656 242.265625 1091.460938 254.371094 1102.679688 C 266.542969 1113.976562 280.707031 1123.445312 295.597656 1131.667969 C 310.476562 1139.9375 326.128906 1146.996094 341.980469 1153.539062 C 357.910156 1159.960938 374.167969 1165.628906 390.589844 1170.871094 C 407.011719 1176.105469 423.632812 1180.753906 440.363281 1184.996094 C 457.054688 1189.21875 474.015625 1193.074219 490.746094 1196.214844 L 491.007812 1196.273438 L 491.335938 1196.351562 C 504.703125 1199.695312 518.511719 1202.644531 532.207031 1205.324219 C 545.9375 1208.003906 559.730469 1210.40625 573.558594 1212.421875 C 601.195312 1216.554688 629.019531 1219.324219 656.753906 1219.957031 C 670.601562 1220.230469 684.453125 1220.074219 698.109375 1218.832031 C 711.753906 1217.636719 725.253906 1215.5625 738.109375 1211.957031 C 750.898438 1208.292969 763.03125 1202.972656 772.792969 1195.308594 C 782.613281 1187.714844 789.0625 1177.292969 792 1165.5625 Z M 810.207031 1169.898438 C 806.351562 1185.542969 796.800781 1200.214844 784.128906 1209.710938 C 771.542969 1219.390625 757.210938 1225.289062 742.898438 1229.269531 C 728.523438 1233.148438 713.988281 1235.230469 699.535156 1236.375 C 685.058594 1237.550781 670.640625 1237.582031 656.300781 1237.175781 C 627.601562 1236.269531 599.183594 1233.175781 571.0625 1228.710938 C 556.992188 1226.523438 542.988281 1223.980469 529.042969 1221.125 C 515.070312 1218.253906 501.289062 1215.195312 487.316406 1211.5625 L 487.902344 1211.699219 C 470.480469 1208.257812 453.539062 1204.226562 436.539062 1199.773438 C 419.578125 1195.320312 402.730469 1190.460938 386.039062 1184.976562 C 369.359375 1179.492188 352.8125 1173.554688 336.527344 1166.816406 C 320.289062 1159.960938 304.230469 1152.546875 288.765625 1143.773438 C 273.304688 1135.042969 258.367188 1124.957031 245.128906 1112.457031 C 238.601562 1106.113281 232.308594 1099.335938 227.328125 1091.375 C 222.335938 1083.496094 218.105469 1074.8125 216.199219 1065.324219 C 214.261719 1055.890625 214.480469 1046.027344 216.371094 1036.734375 C 217.527344 1032.378906 218.460938 1027.894531 219.820312 1023.644531 C 221.226562 1019.410156 222.441406 1015.082031 224.011719 1010.949219 C 229.976562 994.210938 237.234375 978.191406 244.859375 962.402344 C 260.085938 930.8125 277.257812 900.386719 294.816406 870.234375 C 312.492188 840.148438 330.859375 810.523438 349.59375 781.144531 C 387.1875 722.445312 426.128906 664.722656 466.421875 607.835938 L 466.433594 607.828125 L 468.15625 605.390625 L 471.03125 606.21875 L 613.640625 647.640625 L 613.128906 647.523438 L 759.84375 670.660156 L 762.78125 671.125 L 763.3125 674.0625 C 770.953125 714.8125 777.929688 755.605469 784.425781 796.527344 C 790.914062 837.441406 796.847656 878.457031 802.042969 919.601562 C 807.160156 960.753906 811.546875 1002.039062 814.253906 1043.589844 C 815.523438 1064.371094 816.382812 1085.230469 816.265625 1106.21875 C 816.085938 1127.242188 815.148438 1148.382812 810.207031 1169.898438 Z M 810.207031 1169.898438 " fill-opacity="1" fill-rule="nonzero"/><path fill="#ff2e57" d="M 696.679688 786.398438 C 696.679688 786.398438 702.609375 967.210938 800.578125 1011.457031 L 800.597656 1011.457031 C 793.167969 921.054688 778.527344 820.542969 768.292969 756.3125 C 742.070312 765.96875 696.679688 786.398438 696.679688 786.398438 Z M 696.679688 786.398438 " fill-opacity="1" fill-rule="nonzero"/><path fill="#1c1d23" d="M 701.007812 789.058594 C 702.28125 811.375 713.796875 960.164062 795.789062 1004.410156 C 788.472656 919.222656 775.214844 826.902344 764.949219 762.054688 C 742.628906 770.597656 710.335938 784.894531 701.007812 789.058594 Z M 805.261719 1016.953125 L 798.84375 1015.285156 C 699.640625 970.480469 692.730469 794.03125 692.480469 786.542969 L 692.382812 783.726562 L 694.945312 782.570312 C 695.398438 782.367188 740.769531 761.96875 766.828125 752.367188 L 771.617188 750.605469 L 772.417969 755.644531 C 783.105469 822.671875 797.398438 921.402344 804.769531 1011.113281 Z M 805.261719 1016.953125 " fill-opacity="1" fill-rule="nonzero"/><path fill="#ff2e57" d="M 484.503906 725.085938 C 484.503906 725.085938 402.316406 886.238281 294.84375 884.644531 L 294.816406 884.636719 C 339.957031 805.964844 395.910156 721.191406 432.460938 667.410156 C 452.09375 687.300781 484.503906 725.085938 484.503906 725.085938 Z M 484.503906 725.085938 " fill-opacity="1" fill-rule="nonzero"/><path fill="#1c1d23" d="M 433.039062 674.023438 C 396.199219 728.375 344.96875 806.3125 302.160156 880.296875 C 395.175781 875.101562 468.824219 745.3125 479.453125 725.644531 C 472.765625 717.914062 449.617188 691.25 433.039062 674.023438 Z M 296.445312 888.847656 C 295.886719 888.847656 295.335938 888.847656 294.777344 888.839844 L 294.015625 888.761719 L 288.300781 887.617188 L 291.171875 882.554688 C 335.957031 804.5 390.832031 721.203125 428.984375 665.058594 L 431.855469 660.835938 L 435.441406 664.472656 C 454.957031 684.234375 487.355469 721.984375 487.683594 722.359375 L 489.511719 724.488281 L 488.230469 726.996094 C 484.847656 733.628906 404.4375 888.847656 296.445312 888.847656 Z M 296.445312 888.847656 " fill-opacity="1" fill-rule="nonzero"/><path fill="#e2e2d3" d="M 725.648438 1017.019531 L 678.46875 1228.683594 C 590.894531 1230.746094 489.320312 1203.949219 489.320312 1203.949219 C 489.320312 1203.949219 404.4375 1188.417969 330.242188 1156.421875 C 322.550781 1153.097656 314.96875 1149.597656 307.613281 1145.933594 L 354.796875 934.261719 C 359.222656 914.453125 378.851562 902.007812 398.597656 906.421875 L 441.105469 915.90625 L 697.820312 973.199219 C 717.621094 977.601562 730.0625 997.210938 725.648438 1017.019531 Z M 725.648438 1017.019531 " fill-opacity="1" fill-rule="nonzero"/><path fill="#afaea0" d="M 457.460938 924.949219 C 457.460938 924.949219 388.132812 911.609375 376.546875 938.570312 C 366.84375 961.175781 339.039062 1108.976562 330.234375 1156.421875 C 322.542969 1153.097656 314.957031 1149.597656 307.605469 1145.933594 L 354.789062 934.261719 C 359.210938 914.453125 378.84375 902.007812 398.589844 906.421875 L 441.097656 915.910156 Z M 457.460938 924.949219 " fill-opacity="1" fill-rule="nonzero"/><path fill="#1c1d23" d="M 720.511719 1015.863281 C 721.652344 1010.28125 721.507812 1004.402344 719.597656 999.011719 C 717.84375 993.585938 714.433594 988.738281 710.132812 985.035156 C 707.957031 983.195312 705.519531 981.699219 702.953125 980.464844 C 701.632812 979.957031 700.332031 979.339844 698.957031 978.980469 L 696.894531 978.402344 L 694.492188 977.855469 L 675.015625 973.507812 L 597.101562 956.125 L 441.269531 921.355469 L 402.316406 912.660156 L 397.449219 911.570312 C 396.035156 911.398438 394.648438 910.972656 393.21875 910.964844 C 390.378906 910.625 387.523438 910.953125 384.71875 911.386719 C 381.925781 911.957031 379.21875 912.871094 376.644531 914.113281 C 374.140625 915.464844 371.679688 916.957031 369.601562 918.925781 C 367.507812 920.851562 365.582031 922.992188 364.105469 925.433594 C 362.535156 927.8125 361.390625 930.445312 360.558594 933.171875 L 359.980469 935.234375 L 359.433594 937.636719 L 358.34375 942.503906 L 356.175781 952.25 L 347.453125 991.214844 L 329.691406 1069.066406 L 320.796875 1107.992188 L 311.679688 1146.871094 L 309.457031 1142.203125 L 309.464844 1142.203125 C 323.652344 1149.105469 338.136719 1155.457031 352.929688 1161.109375 C 367.738281 1166.6875 382.695312 1171.941406 397.867188 1176.570312 C 413.023438 1181.234375 428.300781 1185.535156 443.679688 1189.429688 C 459.050781 1193.296875 474.585938 1196.871094 490.054688 1199.859375 L 490.21875 1199.878906 L 490.371094 1199.925781 C 505.636719 1203.804688 521.21875 1207.167969 536.773438 1210.195312 C 552.355469 1213.222656 568.007812 1215.824219 583.714844 1218.039062 C 599.414062 1220.296875 615.191406 1221.898438 630.964844 1223.140625 C 646.75 1224.316406 662.566406 1224.722656 678.34375 1224.507812 L 674.34375 1227.785156 L 685.714844 1174.777344 L 697.308594 1121.816406 Z M 730.796875 1018.160156 L 706.789062 1123.898438 L 694.78125 1176.773438 L 682.554688 1229.589844 L 681.792969 1232.867188 L 678.554688 1232.867188 C 662.449219 1233.089844 646.375 1232.664062 630.367188 1231.480469 C 614.371094 1230.226562 598.421875 1228.605469 582.570312 1226.320312 C 566.707031 1224.074219 550.910156 1221.433594 535.191406 1218.40625 C 519.464844 1215.34375 503.871094 1211.976562 488.242188 1208.007812 L 488.558594 1208.082031 C 472.726562 1205.027344 457.179688 1201.441406 441.648438 1197.527344 C 426.132812 1193.605469 410.710938 1189.277344 395.398438 1184.5625 C 380.074219 1179.875 364.945312 1174.585938 349.929688 1168.917969 C 334.9375 1163.191406 320.210938 1156.722656 305.726562 1149.683594 L 305.714844 1149.683594 L 302.785156 1148.335938 L 303.488281 1145.019531 L 311.75 1105.949219 L 320.230469 1066.9375 L 337.230469 988.910156 L 345.894531 949.9375 L 348.0625 940.191406 L 349.148438 935.324219 L 349.710938 932.855469 L 350.460938 930.109375 C 351.558594 926.472656 353.109375 922.953125 355.203125 919.765625 C 357.1875 916.507812 359.742188 913.632812 362.546875 911.078125 C 365.332031 908.476562 368.589844 906.441406 371.933594 904.679688 C 375.351562 903.011719 378.976562 901.785156 382.714844 901.035156 C 386.457031 900.417969 390.289062 900.042969 394.078125 900.464844 C 395.984375 900.511719 397.835938 901.015625 399.714844 901.285156 L 404.59375 902.375 L 443.546875 911.070312 L 599.375 945.839844 L 677.292969 963.222656 L 696.769531 967.570312 L 699.234375 968.128906 L 701.980469 968.878906 C 703.8125 969.371094 705.566406 970.160156 707.320312 970.875 C 710.761719 972.503906 714.019531 974.527344 716.929688 976.988281 C 722.691406 981.933594 727.203125 988.398438 729.5625 995.640625 C 732.105469 1002.839844 732.347656 1010.734375 730.796875 1018.160156 Z M 730.796875 1018.160156 " fill-opacity="1" fill-rule="nonzero"/><path fill="#1c1d23" d="M 282.789062 1359.234375 C 242.546875 1241.339844 153.046875 1227.34375 149.257812 1226.8125 L 151.53125 1210.289062 C 155.734375 1210.867188 254.859375 1225.820312 298.566406 1353.847656 Z M 282.789062 1359.234375 " fill-opacity="1" fill-rule="nonzero"/><path fill="#1c1d23" d="M 583.292969 1397.023438 L 571.449219 1385.28125 C 574.425781 1382.273438 645.875 1311.914062 774.480469 1353.769531 L 769.316406 1369.628906 C 650.894531 1331.097656 585.988281 1394.304688 583.292969 1397.023438 Z M 583.292969 1397.023438 " fill-opacity="1" fill-rule="nonzero"/><path fill="#e2e2d3" d="M 187.46875 1468.378906 C 158.328125 1499.9375 111.820312 1483.570312 64.855469 1440.238281 C 58.84375 1434.667969 53.082031 1428.941406 47.769531 1423.082031 C 23.332031 1396.476562 6.628906 1367.691406 5.925781 1343.347656 C 5.558594 1331.367188 9.085938 1320.464844 17.453125 1311.394531 C 33.390625 1294.097656 59.066406 1289.152344 86.753906 1295.285156 C 109.6875 1300.375 133.9375 1313.070312 155.183594 1332.707031 C 161.421875 1338.472656 167.066406 1344.515625 172.136719 1350.792969 C 205.222656 1391.691406 212.71875 1441.019531 187.46875 1468.378906 Z M 187.46875 1468.378906 " fill-opacity="1" fill-rule="nonzero"/><path fill="#ffffff" d="M 86.753906 1295.292969 C 83.589844 1296.019531 24.132812 1309.917969 5.925781 1343.347656 C 5.5625 1331.367188 9.085938 1320.464844 17.453125 1311.394531 C 33.390625 1294.117188 59.066406 1289.164062 86.753906 1295.292969 Z M 86.753906 1295.292969 " fill-opacity="1" fill-rule="nonzero"/><path fill="#afaea0" d="M 187.46875 1468.378906 C 158.328125 1499.9375 111.820312 1483.570312 64.855469 1440.238281 C 58.84375 1434.667969 53.082031 1428.941406 47.769531 1423.082031 C 72.546875 1437.347656 100.273438 1440.191406 116.269531 1444.972656 C 163.953125 1459.21875 172.144531 1350.792969 172.144531 1350.792969 C 205.222656 1391.691406 212.71875 1441.019531 187.46875 1468.378906 Z M 187.46875 1468.378906 " fill-opacity="1" fill-rule="nonzero"/><path fill="#1c1d23" d="M 181.464844 1462.84375 C 188.761719 1455.21875 193.328125 1444.992188 194.640625 1433.878906 C 196.066406 1422.773438 194.609375 1411.058594 191.449219 1399.78125 C 184.984375 1377.117188 171.566406 1356.171875 154.492188 1339.128906 C 137.460938 1322.007812 116.503906 1308.289062 93.375 1301.425781 C 81.855469 1297.992188 69.78125 1296.308594 58.015625 1297.339844 C 46.277344 1298.3125 34.847656 1302.265625 26 1309.53125 C 21.605469 1313.207031 17.859375 1317.542969 15.253906 1322.410156 C 12.578125 1327.269531 11.332031 1332.785156 10.976562 1338.355469 C 10.390625 1349.625 13.90625 1361.171875 18.945312 1371.855469 C 24.042969 1382.601562 30.800781 1392.6875 38.328125 1402.152344 C 45.902344 1411.601562 54.226562 1420.507812 63.101562 1428.828125 C 71.96875 1437.175781 81.316406 1444.992188 91.058594 1452.039062 C 100.8125 1459.058594 111.078125 1465.285156 121.785156 1469.738281 C 132.460938 1474.144531 143.628906 1476.6875 154.078125 1476.023438 C 164.484375 1475.203125 173.929688 1470.613281 181.464844 1462.84375 Z M 193.453125 1473.921875 L 189.628906 1477.652344 C 188.328125 1478.886719 187.132812 1480.195312 185.589844 1481.210938 C 182.660156 1483.347656 179.789062 1485.585938 176.414062 1487.109375 C 174.757812 1487.890625 173.207031 1488.921875 171.441406 1489.46875 L 166.21875 1491.234375 C 164.484375 1491.898438 162.664062 1492.042969 160.871094 1492.410156 C 159.078125 1492.671875 157.265625 1493.125 155.472656 1493.191406 C 140.960938 1494.214844 127.316406 1490.328125 115.238281 1484.882812 C 103.085938 1479.378906 92.148438 1472.207031 81.925781 1464.386719 C 71.730469 1456.5 62.140625 1448.046875 53.265625 1438.898438 C 35.523438 1420.660156 19.410156 1400.339844 8.789062 1376.480469 C 3.691406 1364.566406 -0.0273438 1351.398438 1.117188 1337.660156 C 1.753906 1330.855469 3.652344 1324.011719 7.0625 1317.96875 C 10.464844 1311.902344 15.140625 1306.765625 20.382812 1302.574219 C 31.058594 1294.207031 44.273438 1289.839844 57.300781 1288.855469 C 70.398438 1287.863281 83.410156 1289.742188 95.761719 1293.289062 C 120.492188 1300.617188 142.792969 1314.410156 161.585938 1331.792969 C 171 1340.503906 179.402344 1350.328125 186.738281 1360.988281 C 194.042969 1371.660156 200.074219 1383.335938 204.277344 1395.828125 C 208.460938 1408.300781 210.65625 1421.769531 209.472656 1435.488281 C 208.402344 1449.128906 203.070312 1463.132812 193.453125 1473.921875 Z M 193.453125 1473.921875 " fill-opacity="1" fill-rule="nonzero"/><path fill="#e2e2d3" d="M 837.132812 1538.035156 C 823.570312 1560.949219 790.488281 1576.585938 746.910156 1584.597656 C 684.066406 1596.144531 623.207031 1587.46875 615.429688 1545.238281 C 610.035156 1515.914062 629.859375 1485.953125 663.511719 1466.507812 C 663.539062 1466.480469 663.539062 1466.480469 663.539062 1466.480469 C 678.390625 1457.898438 695.929688 1451.34375 715.164062 1447.828125 C 778.007812 1436.269531 835.222656 1461.148438 842.972656 1503.382812 C 845.351562 1516.328125 843.175781 1527.914062 837.132812 1538.035156 Z M 837.132812 1538.035156 " fill-opacity="1" fill-rule="nonzero"/><path fill="#afaea0" d="M 837.132812 1538.035156 C 823.570312 1560.949219 790.488281 1576.585938 746.910156 1584.597656 C 684.066406 1596.144531 623.207031 1587.46875 615.429688 1545.238281 C 610.035156 1515.914062 629.859375 1485.953125 663.511719 1466.507812 C 662.921875 1468.242188 638.117188 1541.207031 723.355469 1551.871094 C 773.496094 1558.125 812.902344 1547.800781 837.132812 1538.035156 Z M 837.132812 1538.035156 " fill-opacity="1" fill-rule="nonzero"/><path fill="#1c1d23" d="M 837.507812 1504.394531 C 835.65625 1493.382812 829.855469 1483.089844 821.414062 1475.085938 C 813.046875 1467.007812 802.523438 1460.957031 791.308594 1456.820312 C 768.71875 1448.460938 743.554688 1447.46875 719.734375 1451.605469 C 695.890625 1455.761719 672.609375 1464.78125 653.730469 1479.464844 C 644.34375 1486.769531 636.054688 1495.445312 630.097656 1505.328125 C 624.132812 1515.160156 620.789062 1526.292969 621.339844 1537.1875 C 621.675781 1542.644531 622.878906 1547.9375 625.097656 1552.59375 C 627.285156 1557.285156 630.675781 1561.308594 634.695312 1564.75 C 642.847656 1571.621094 653.804688 1575.746094 665.148438 1578.136719 C 676.558594 1580.539062 688.519531 1581.375 700.507812 1581.214844 C 712.503906 1581 724.582031 1579.96875 736.570312 1578.15625 C 760.46875 1574.4375 784.492188 1568.941406 805.289062 1557.863281 C 815.574219 1552.304688 824.910156 1545.121094 831.089844 1535.953125 C 837.207031 1526.785156 839.261719 1515.59375 837.507812 1504.394531 Z M 848.453125 1502.386719 L 849.128906 1507.476562 C 849.332031 1509.183594 849.667969 1510.871094 849.554688 1512.625 C 849.523438 1516.085938 849.59375 1519.574219 848.820312 1523.027344 C 847.914062 1530.007812 845.015625 1536.570312 841.574219 1542.597656 C 834.132812 1554.40625 823.445312 1563.226562 812.171875 1569.953125 C 800.828125 1576.722656 788.695312 1581.523438 776.417969 1585.386719 C 764.121094 1589.222656 751.632812 1592.117188 739.007812 1594.074219 C 713.777344 1597.917969 687.710938 1599.09375 661.765625 1593.398438 C 655.308594 1591.882812 648.882812 1589.871094 642.644531 1587.074219 C 636.441406 1584.238281 630.320312 1580.722656 625.011719 1575.910156 C 619.730469 1571.121094 615.113281 1565.210938 612.242188 1558.492188 C 609.3125 1551.773438 608 1544.640625 607.828125 1537.671875 C 607.585938 1523.546875 612.375 1509.984375 619.710938 1498.832031 C 627.054688 1487.601562 636.660156 1478.335938 647.183594 1470.722656 C 668.386719 1455.617188 693.066406 1446.542969 718.304688 1442.726562 C 743.546875 1439.007812 769.730469 1440.316406 794.246094 1448.617188 C 806.429688 1452.847656 818.234375 1458.980469 828.148438 1467.898438 C 838.09375 1476.660156 845.738281 1488.835938 848.453125 1502.386719 Z M 848.453125 1502.386719 " fill-opacity="1" fill-rule="nonzero"/><path fill="#1c1d23" d="M 930.011719 890.699219 C 856.519531 848.863281 885 753.339844 885.296875 752.386719 L 895.898438 755.65625 C 894.800781 759.230469 869.792969 843.648438 935.507812 881.058594 Z M 930.011719 890.699219 " fill-opacity="1" fill-rule="nonzero"/><path fill="#1c1d23" d="M 242.863281 728.789062 L 241.496094 717.769531 C 305.628906 709.816406 336.507812 624.890625 336.804688 624.042969 L 347.261719 627.753906 C 345.929688 631.511719 313.832031 719.988281 242.863281 728.789062 Z M 242.863281 728.789062 " fill-opacity="1" fill-rule="nonzero"/><path fill="#afaea0" d="M 457.46875 994.050781 C 457.46875 1016.402344 439.371094 1034.527344 417.035156 1034.527344 C 412.976562 1034.527344 409.0625 1033.9375 405.371094 1032.820312 C 388.699219 1027.816406 376.566406 1012.335938 376.566406 994.039062 C 376.566406 973.699219 391.5625 956.917969 411.078125 954.035156 C 413.003906 953.726562 415.019531 953.589844 417.035156 953.589844 C 439.371094 953.589844 457.46875 971.695312 457.46875 994.050781 Z M 457.46875 994.050781 " fill-opacity="1" fill-rule="nonzero"/><path fill="#e2e2d3" d="M 457.46875 994.050781 C 457.46875 1016.402344 439.371094 1034.527344 417.035156 1034.527344 C 412.976562 1034.527344 409.0625 1033.9375 405.371094 1032.820312 C 435.855469 1004.421875 419.691406 968.472656 411.078125 954.035156 C 413.003906 953.726562 415.019531 953.589844 417.035156 953.589844 C 439.371094 953.589844 457.46875 971.695312 457.46875 994.050781 Z M 457.46875 994.050781 " fill-opacity="1" fill-rule="nonzero"/><path fill="#1c1d23" d="M 417.023438 957.785156 C 397.027344 957.785156 380.769531 974.054688 380.769531 994.050781 C 380.769531 1014.042969 397.035156 1030.3125 417.023438 1030.3125 C 437.019531 1030.3125 453.277344 1014.042969 453.277344 994.050781 C 453.277344 974.046875 437.011719 957.785156 417.023438 957.785156 Z M 417.023438 1038.710938 C 392.402344 1038.710938 372.375 1018.679688 372.375 994.050781 C 372.375 969.417969 392.402344 949.386719 417.023438 949.386719 C 441.644531 949.386719 461.671875 969.417969 461.671875 994.050781 C 461.671875 1018.679688 441.636719 1038.710938 417.023438 1038.710938 Z M 417.023438 1038.710938 " fill-opacity="1" fill-rule="nonzero"/><path fill="#e2e2d3" d="M 292.011719 333.273438 L 326.917969 168.394531 L 346.085938 171.410156 L 324.210938 318.777344 Z M 292.011719 333.273438 " fill-opacity="1" fill-rule="nonzero"/><path fill="#1c1d23" d="M 330.203125 173.15625 L 297.84375 326.054688 L 320.402344 315.894531 L 341.335938 174.910156 Z M 286.199219 340.496094 L 323.640625 163.621094 L 350.847656 167.914062 L 328.015625 321.660156 Z M 286.199219 340.496094 " fill-opacity="1" fill-rule="nonzero"/><path fill="#e2e2d3" d="M 323.160156 588.257812 C 323.160156 588.257812 318.609375 586.550781 311.835938 583.613281 C 297.976562 577.585938 274.945312 566.367188 263.082031 553.96875 C 245.40625 535.480469 254.679688 387.769531 262.609375 361.886719 C 267.207031 346.800781 295.308594 330.160156 317.90625 318.929688 C 334.03125 310.921875 347.359375 305.648438 347.359375 305.648438 Z M 323.160156 588.257812 " fill-opacity="1" fill-rule="nonzero"/><path fill="#afaea0" d="M 323.160156 588.257812 C 323.160156 588.257812 318.609375 586.550781 311.835938 583.613281 C 249.039062 509.617188 308.328125 329.777344 308.328125 329.777344 L 317.898438 318.921875 C 334.019531 310.910156 347.347656 305.636719 347.347656 305.636719 Z M 323.160156 588.257812 " fill-opacity="1" fill-rule="nonzero"/><path fill="#1c1d23" d="M 348.898438 309.53125 C 335.128906 315.632812 321.386719 322.3125 308.328125 329.777344 C 301.785156 333.496094 295.433594 337.507812 289.351562 341.710938 C 283.339844 345.960938 277.546875 350.578125 273.105469 355.714844 C 270.945312 358.269531 269.183594 361.007812 268.429688 363.429688 C 267.535156 366.386719 266.90625 370.207031 266.320312 373.792969 C 265.203125 381.148438 264.402344 388.675781 263.707031 396.214844 C 262.253906 411.300781 261.289062 426.492188 260.664062 441.683594 C 259.996094 456.867188 259.640625 472.078125 259.835938 487.222656 C 260.074219 502.328125 260.546875 517.539062 262.628906 532.050781 C 262.910156 533.84375 263.148438 535.664062 263.535156 537.378906 L 264.066406 539.992188 L 264.71875 542.46875 C 264.914062 543.328125 265.183594 544.089844 265.453125 544.820312 C 265.730469 545.527344 265.933594 546.429688 266.273438 546.960938 C 266.578125 547.5 266.851562 548.320312 267.148438 548.667969 C 267.292969 548.839844 267.417969 549.023438 267.535156 549.226562 L 267.699219 549.527344 L 268.152344 549.980469 C 272.816406 554.886719 278.789062 559.222656 284.9375 563.253906 C 297.351562 571.234375 310.957031 578.175781 324.625 584.316406 L 321.695312 592.183594 C 314.1875 589.753906 307.035156 586.910156 299.855469 583.804688 C 292.6875 580.730469 285.660156 577.269531 278.789062 573.296875 C 271.929688 569.296875 265.230469 564.835938 259.054688 558.894531 L 258.476562 558.355469 L 257.78125 557.507812 L 256.441406 555.761719 C 255.585938 554.578125 255.199219 553.566406 254.582031 552.4375 C 253.945312 551.308594 253.695312 550.316406 253.261719 549.257812 C 252.847656 548.207031 252.472656 547.15625 252.210938 546.152344 L 251.335938 543.097656 L 250.648438 540.089844 C 250.160156 538.074219 249.851562 536.105469 249.484375 534.132812 C 248.132812 526.226562 247.507812 518.417969 246.996094 510.628906 C 246.496094 502.851562 246.265625 495.089844 246.226562 487.347656 C 246.101562 471.867188 246.496094 456.433594 247.277344 441.03125 C 248.105469 425.625 249.261719 410.25 250.9375 394.875 C 251.835938 387.179688 252.835938 379.5 254.207031 371.738281 C 254.96875 367.796875 255.601562 364.035156 257.011719 359.6875 C 258.707031 354.828125 261.453125 351.1875 264.265625 347.957031 C 270.03125 341.632812 276.488281 336.859375 283.050781 332.425781 C 289.632812 328.039062 296.464844 324.195312 303.363281 320.597656 C 317.203125 313.4375 331.265625 307.152344 345.835938 301.683594 Z M 348.898438 309.53125 " fill-opacity="1" fill-rule="nonzero"/><path fill="#e2e2d3" d="M 1069.546875 474.921875 L 1095 308.316406 L 1075.996094 304.382812 L 1044.53125 450.003906 Z M 1069.546875 474.921875 " fill-opacity="1" fill-rule="nonzero"/><path fill="#1c1d23" d="M 1049.117188 448.644531 L 1066.648438 466.113281 L 1090.25 311.625 L 1079.214844 309.339844 Z M 1072.449219 483.734375 L 1039.953125 451.355469 L 1072.777344 299.429688 L 1099.75 305.011719 Z M 1072.449219 483.734375 " fill-opacity="1" fill-rule="nonzero"/><path fill="#e2e2d3" d="M 1018.828125 691.65625 C 1009.210938 696.273438 995.699219 698.933594 983.230469 700.46875 C 965.863281 702.597656 950.519531 702.558594 950.519531 702.558594 L 1027.5 429.546875 C 1027.5 429.546875 1040.722656 441.539062 1054.707031 457.136719 C 1070.808594 475.027344 1087.898438 497.625 1086.980469 512.066406 C 1085.277344 539.085938 1041.890625 680.589844 1018.828125 691.65625 Z M 1018.828125 691.65625 " fill-opacity="1" fill-rule="nonzero"/><path fill="#afaea0" d="M 983.230469 700.46875 C 965.863281 702.597656 950.519531 702.558594 950.519531 702.558594 L 1027.5 429.546875 C 1027.5 429.546875 1040.722656 441.539062 1054.707031 457.136719 C 1053.550781 486.953125 1045.070312 617.074219 983.230469 700.46875 Z M 983.230469 700.46875 " fill-opacity="1" fill-rule="nonzero"/><path fill="#1c1d23" d="M 950.519531 706.761719 L 950.539062 698.367188 C 950.992188 698.367188 995.121094 698.375 1017.015625 687.867188 C 1036.667969 678.441406 1080.882812 541.996094 1082.800781 511.816406 C 1084.101562 491.339844 1041.28125 447.71875 1024.679688 432.644531 L 1030.304688 426.425781 C 1036.734375 432.246094 1092.964844 484.140625 1091.183594 512.34375 C 1089.527344 538.429688 1046.324219 683.125 1020.660156 695.433594 C 997.019531 706.78125 952.410156 706.769531 950.519531 706.761719 Z M 950.519531 706.761719 " fill-opacity="1" fill-rule="nonzero"/><path fill="#e2e2d3" d="M 950.636719 702.269531 C 947.476562 705.902344 944.246094 709.433594 940.863281 712.882812 C 933.433594 720.605469 925.484375 727.855469 917.082031 734.679688 C 899.195312 749.167969 879.285156 761.601562 857.339844 771.851562 C 791.796875 802.417969 708.398438 813.128906 608.859375 798.976562 C 510.753906 777.125 436.460938 737.6875 385.925781 685.957031 C 369.011719 668.636719 354.730469 649.964844 343.109375 630.105469 C 342.328125 628.792969 341.574219 627.464844 340.84375 626.144531 C 282.171875 521.957031 298.121094 386.121094 373.433594 242.417969 C 395.601562 200.167969 425.917969 168.097656 461.429688 144.765625 C 538.769531 93.964844 640.652344 84.574219 735.855469 101.464844 C 814.53125 116.195312 891.15625 149.347656 946.125 202.847656 C 988.039062 243.558594 1017.363281 296.105469 1025.382812 361.203125 C 1028.40625 385.667969 1030.152344 409.46875 1030.691406 432.546875 C 1033.410156 543.375 1007.4375 636.835938 950.636719 702.269531 Z M 950.636719 702.269531 " fill-opacity="1" fill-rule="nonzero"/><path fill="#ffffff" d="M 946.136719 202.847656 C 904.03125 176.636719 834.605469 144.3125 724.128906 124.859375 C 618.628906 106.292969 525.054688 124.339844 461.441406 144.765625 C 538.777344 93.964844 640.660156 84.574219 735.867188 101.464844 C 814.542969 116.203125 891.167969 149.355469 946.136719 202.847656 Z M 946.136719 202.847656 " fill-opacity="1" fill-rule="nonzero"/><path fill="#afaea0" d="M 940.863281 712.882812 C 933.433594 720.605469 925.484375 727.855469 917.082031 734.679688 C 899.195312 749.167969 879.285156 761.601562 857.339844 771.851562 C 791.796875 802.417969 708.398438 813.128906 608.859375 798.976562 C 510.753906 777.125 436.460938 737.6875 385.925781 685.957031 C 369.011719 668.636719 354.730469 649.964844 343.109375 630.105469 C 342.328125 628.792969 341.574219 627.464844 340.84375 626.144531 C 327.699219 570.917969 321.28125 467.394531 375.382812 363.5625 C 465.277344 191.039062 554.101562 162.136719 719.609375 192.292969 C 870.136719 219.71875 1003.339844 326.644531 975.828125 563.648438 C 969.015625 622.433594 956.265625 671.835938 940.863281 712.882812 Z M 940.863281 712.882812 " fill-opacity="1" fill-rule="nonzero"/><path fill="#1c1d23" d="M 945.972656 698.222656 C 971.585938 668.5 990.195312 633.140625 1002.570312 595.808594 C 1008.875 577.144531 1013.363281 557.875 1016.726562 538.421875 C 1020.0625 518.957031 1022.308594 499.265625 1023.203125 479.484375 C 1025.265625 439.929688 1023.195312 400.089844 1018.171875 360.738281 C 1013.179688 321.976562 999.554688 284.449219 977.898438 251.992188 C 967.078125 235.769531 954.425781 220.757812 940.382812 207.128906 C 926.3125 193.535156 910.804688 181.390625 894.421875 170.554688 C 861.65625 148.824219 825.144531 132.832031 787.421875 121.246094 C 768.542969 115.472656 749.242188 110.882812 729.832031 107.519531 C 710.375 104.261719 690.667969 102.101562 670.949219 101.175781 C 631.523438 99.421875 591.792969 102.5625 553.675781 112.234375 C 534.652344 117.101562 516.0625 123.609375 498.320312 131.886719 C 480.5625 140.140625 463.820312 150.445312 448.371094 162.378906 C 432.925781 174.324219 418.863281 188.058594 406.703125 203.359375 C 394.453125 218.65625 384.160156 235.207031 375.363281 252.984375 C 357.234375 288.351562 341.777344 325.121094 330.472656 363.109375 L 326.273438 377.367188 L 322.820312 391.808594 L 321.097656 399.027344 L 320.230469 402.632812 L 319.5625 406.277344 L 316.921875 420.871094 C 316.5 423.300781 316.019531 425.730469 315.632812 428.167969 L 314.753906 435.523438 L 312.992188 450.226562 C 312.472656 455.132812 312.375 460.066406 312.039062 464.984375 L 311.625 472.367188 L 311.410156 476.0625 L 311.449219 479.753906 C 311.652344 489.59375 311.34375 499.464844 312.472656 509.25 C 312.933594 514.148438 313.15625 519.0625 313.753906 523.941406 C 314.515625 528.789062 315.238281 533.648438 315.921875 538.527344 C 316.308594 540.957031 316.546875 543.414062 317.039062 545.816406 L 318.601562 553.015625 C 319.671875 557.804688 320.605469 562.65625 321.789062 567.425781 L 326.089844 581.550781 C 326.832031 583.890625 327.449219 586.292969 328.304688 588.605469 L 331.070312 595.460938 C 332.96875 600 334.714844 604.628906 336.777344 609.101562 L 343.675781 622.191406 C 344.851562 624.359375 345.960938 626.566406 347.183594 628.707031 C 348.4375 630.828125 349.726562 632.941406 351.039062 635.03125 C 353.667969 639.207031 356.417969 643.3125 359.257812 647.339844 C 370.648438 663.46875 383.765625 678.371094 398.191406 691.878906 C 427.066406 718.9375 460.988281 740.347656 496.945312 757.035156 C 532.96875 773.730469 571.160156 785.539062 609.957031 794.273438 L 609.582031 794.203125 C 639.957031 798.332031 670.601562 800.566406 701.171875 799.894531 C 716.457031 799.660156 731.691406 798.425781 746.851562 796.722656 C 762 794.878906 776.996094 792.140625 791.808594 788.644531 C 806.609375 785.152344 821.113281 780.496094 835.269531 775.050781 C 849.410156 769.566406 863.179688 763.136719 876.277344 755.539062 C 902.507812 740.414062 926.292969 721.125 945.972656 698.222656 Z M 955.28125 706.316406 C 934.515625 730.167969 909.46875 750.160156 882.058594 765.652344 C 868.375 773.460938 854.015625 780.035156 839.339844 785.605469 C 824.632812 791.148438 809.617188 795.84375 794.34375 799.332031 C 779.066406 802.824219 763.628906 805.53125 748.085938 807.304688 C 732.539062 808.945312 716.949219 810.089844 701.335938 810.214844 C 670.121094 810.707031 638.992188 808.132812 608.195312 803.835938 L 608 803.804688 L 607.828125 803.769531 C 568.5 794.753906 529.71875 782.589844 493.03125 765.402344 C 456.410156 748.234375 421.746094 726.175781 392.167969 698.230469 C 377.386719 684.28125 363.953125 668.878906 352.28125 652.210938 C 349.363281 648.046875 346.558594 643.804688 343.859375 639.484375 C 342.519531 637.324219 341.199219 635.148438 339.917969 632.960938 C 338.65625 630.75 337.519531 628.46875 336.3125 626.230469 L 329.132812 612.753906 C 326.996094 608.136719 325.007812 603.453125 322.925781 598.796875 L 319.804688 591.816406 C 318.8125 589.472656 318.050781 587.035156 317.164062 584.644531 L 312.027344 570.222656 C 310.5625 565.34375 309.347656 560.378906 307.992188 555.453125 L 306.003906 548.042969 C 305.367188 545.5625 305.0625 543.027344 304.578125 540.523438 C 303.671875 535.5 302.804688 530.457031 301.976562 525.417969 C 301.273438 520.355469 300.984375 515.257812 300.503906 510.175781 C 299.308594 500.007812 299.578125 489.796875 299.347656 479.609375 L 299.296875 475.78125 L 299.5 471.964844 L 299.90625 464.339844 C 300.234375 459.257812 300.320312 454.148438 300.839844 449.097656 L 302.613281 433.945312 L 303.5 426.367188 C 303.886719 423.859375 304.367188 421.363281 304.800781 418.859375 L 307.46875 403.847656 L 308.144531 400.097656 L 309.019531 396.398438 L 310.765625 388.984375 L 314.265625 374.167969 L 318.515625 359.5625 C 329.960938 320.65625 345.605469 283.148438 363.914062 247.132812 C 381.703125 210.539062 407.636719 176.992188 440.238281 151.921875 C 456.457031 139.3125 474.035156 128.429688 492.597656 119.722656 C 511.148438 110.988281 530.527344 104.144531 550.3125 99.007812 C 589.949219 88.90625 630.984375 85.636719 671.585938 87.390625 C 691.902344 88.324219 712.109375 90.515625 732.183594 93.851562 C 752.265625 97.308594 772.042969 101.984375 791.492188 107.90625 C 830.335938 119.789062 868.058594 136.226562 902.199219 158.785156 C 919.25 170.042969 935.449219 182.691406 950.230469 196.929688 C 964.96875 211.207031 978.3125 226.984375 989.761719 244.105469 C 1012.738281 278.328125 1027.03125 318.207031 1032.183594 358.945312 C 1037.273438 399.117188 1039.066406 439.699219 1036.773438 480.226562 C 1035.761719 500.488281 1033.371094 520.703125 1029.816406 540.726562 C 1026.238281 560.738281 1021.507812 580.605469 1014.886719 599.914062 C 1001.847656 638.519531 982.265625 675.34375 955.28125 706.316406 Z M 955.28125 706.316406 " fill-opacity="1" fill-rule="nonzero"/><path fill="#1c1d23" d="M 964.40625 592.855469 C 951.078125 666.042969 911.808594 728.125 857.359375 771.871094 C 791.816406 802.4375 708.417969 813.148438 608.878906 798.996094 C 510.746094 777.132812 436.480469 737.707031 385.914062 685.976562 C 350.382812 625.84375 335.515625 553.894531 348.84375 480.707031 C 378.898438 315.625 541.050781 206.933594 711.039062 237.90625 C 881.019531 268.878906 994.464844 427.773438 964.40625 592.855469 Z M 964.40625 592.855469 " fill-opacity="1" fill-rule="nonzero"/><path fill="#ffffff" d="M 391.640625 536.734375 C 381.800781 537.464844 391.976562 614.71875 438.96875 674.582031 C 492 742.148438 585.179688 760.964844 588.574219 748.722656 C 593.507812 730.910156 525.789062 728.480469 464.824219 669.078125 C 412.976562 618.558594 402.5 535.925781 391.640625 536.734375 Z M 391.640625 536.734375 " fill-opacity="1" fill-rule="nonzero"/><path fill="#ffffff" d="M 925.097656 488.707031 C 932.105469 487.328125 931.835938 458.496094 920.269531 428.765625 C 908.039062 397.285156 880.140625 374.746094 874.386719 378.390625 C 870.320312 380.964844 876.652344 389.773438 892.371094 421.449219 C 914.441406 465.929688 918.71875 489.960938 925.097656 488.707031 Z M 925.097656 488.707031 " fill-opacity="1" fill-rule="nonzero"/><path fill="#ffffff" d="M 861.609375 355.679688 C 856.917969 346.328125 840.601562 344.890625 837.816406 349.191406 C 836.332031 351.496094 838.742188 355.445312 839.78125 357.144531 C 844.996094 365.644531 857.550781 370.011719 861.589844 366.203125 C 864.027344 363.902344 863.160156 358.773438 861.609375 355.679688 Z M 861.609375 355.679688 " fill-opacity="1" fill-rule="nonzero"/></svg>